<?xml version="1.0" standalone="no"?><!DOCTYPE svg PUBLIC "-//W3C//DTD SVG 1.1//EN" "http://www.w3.org/Graphics/SVG/1.1/DTD/svg11.dtd"><svg t="1619346467034" class="icon" viewBox="0 0 1024 1024" version="1.1" xmlns="http://www.w3.org/2000/svg" p-id="1154" xmlns:xlink="http://www.w3.org/1999/xlink" width="200" height="200"><defs><style type="text/css"></style></defs><path d="M901.7 684.4H629.9l-78.7 78.7h276.5c8.8 0 15.9 7.1 15.9 15.9v38.6c0 8.8-7.1 15.9-15.9 15.9H197.2c-8.8 0-15.9-7.1-15.9-15.9V779c0-8.8 7.1-15.9 15.9-15.9h160.5L279 684.4H123.2c-8.9 0-16.1 7.2-16.1 16.1v195.8c0 8.9 7.2 16.1 16.1 16.1h778.5c8.9 0 16.1-7.2 16.1-16.1V700.5c0-8.9-7.2-16.1-16.1-16.1z" fill="#aeb9d8" p-id="1155"></path><path d="M351.6 684.4l78.7 78.7 12.8 12.8c3.1 3.1 7.3 4.7 11.4 4.7 4.1 0 8.2-1.6 11.4-4.7l12.8-12.8 78.7-78.7 280-280c6.3-6.3 6.3-16.4 0-22.7L570.1 114.4c-3.1-3.1-7.2-4.7-11.4-4.7s-8.2 1.6-11.4 4.7L175.8 485.9c-6.3 6.3-6.3 16.4 0 22.7l175.8 175.8z m-7.4-194.6l10.1-10.1c3.1-3.1 7.2-4.7 11.3-4.7 4.1 0 8.2 1.6 11.3 4.7l77.2 77.2 138.3-138.3c3.1-3.1 7.2-4.7 11.3-4.7s8.2 1.6 11.3 4.7l10.1 10.1c6.2 6.2 6.2 16.3 0 22.6L486.6 589.5 468.2 608c-2.9 2.4-8.1 5.1-14.2 5.1-4.4 0-9.3-1.4-14.2-5.3l-18.4-18.3-77.2-77.2c-6.2-6.2-6.2-16.3 0-22.5z" fill="#aeb9d8" p-id="1156"></path></svg>